<svg xmlns="http://www.w3.org/2000/svg" width="305" height="113.2"><path fill="#fff" d="M7.2 33.7H1.1V23.2h6.1v-5.1c0-5.6 1.3-9.5 4-11.8 2.7-2.3 6.5-3.5 11.4-3.5 1.2 0 2.2 0 3.2.1s2 .2 2.9.3c.2.1.4.1.6.1.2 0 .5 0 .7 0 0 0-.4 11.3-.6 11.3-.2 0-.5-.1-.7-.1-.2 0-.5 0-.7 0-.2 0-.5 0-.6 0-1.9 0-3.3.3-4.1.9-.8.6-1.2 1.6-1.2 3v5h8.1v10.5h-8.1v35.6H7.2V33.7zM33.8 23.2h12.9v46.1H33.8V23.2zM85.3 58.8V33.7h-6.1V23.2h6.1V6.7h14.9v16.5h8.2v10.5h-8.2v19.6c0 1.7.2 3 .6 4.1.4 1.1 1.8 1.6 4.2 1.6.6 0 1.2 0 1.8-.1.6-.1 1.1-.2 1.6-.3v10.8c-.8.2-1.7.4-2.7.6-1 .2-2 .3-3.1.4-.8.1-1.6.1-2.4.1-.8 0-1.6 0-2.3 0-3.9 0-7-.9-9.2-2.7-2.3-1.8-3.4-4.8-3.4-9zM125.4 49.6c0 .7 0 1.3 0 2s.1 1.4.2 2.1c.3 1.7.9 3.3 1.9 4.7.9 1.4 2.5 2.2 4.5 2.2 1.8 0 3.4-.6 4.8-1.7 1.4-1.2 2.3-2.7 2.8-4.6l10 3.6c-.1.6-.5 1.4-1.1 2.5-.6 1.1-1.4 2.3-2.5 3.6-1.4 1.7-3.3 3.1-5.7 4.5-2.4 1.3-5.5 2-9.1 2-7.1 0-12.3-2.4-15.7-7.3-3.3-4.9-5-10.5-5-16.9 0-6.6 1.7-12.2 5.1-16.9 3.4-4.7 8.5-7.1 15.4-7.1 7 0 11.9 2.4 14.8 7.3 2.9 4.9 4.4 10.3 4.5 16.2 0 .2 0 .3 0 .5 0 .1 0 .2 0 .4v3h-24.9zm11.1-8.8c0-.2 0-.4 0-.6 0-.2 0-.5-.1-.7-.1-2-.4-3.7-1.1-5.4-.7-1.6-2.1-2.4-4.4-2.4-1.9 0-3.2.8-4 2.4-.8 1.6-1.3 3.4-1.4 5.4-.1.2-.1.5-.1.7 0 .2 0 .5 0 .6h11.1zM155.6 23.2h14.6v7h.2c.8-2.4 2.3-4.3 4.6-5.6 2.3-1.3 4.7-2 7.3-2.3.4 0 .8 0 1.2 0 .4 0 .8 0 1.1 0v15c-.3-.1-.6-.2-1-.3-.3-.1-.7-.2-1.1-.3-.7-.2-1.3-.3-2-.5-.6-.1-1.3-.2-2.1-.2-2.4 0-4.1.3-5.2.9-1.1.6-2 1.4-2.9 2.5 0 .1 0 .1-.1.2v29.8h-14.9V23.2zM189.5 24h8.6v7c2.1-5.4 5.8-8.1 11.2-8.1 3.1 0 5.5.7 7.4 2.2 1.9 1.5 3.1 3.2 3.5 5.3.5 2 .7 5.3.7 9.7v29.2h-9.3V40.6c0-3.9-.3-6.6-1-8-.7-1.4-2.2-2.1-4.4-2.1-2.3 0-4.2.9-5.5 2.7-1.3 1.8-2 5.4-2 10.8v25.4h-9.3V24zM241.3 17.9h-9.8V8h9.8v9.9zm-9.6 6.1h9.3v45.3h-9.3V24zM253.7 12.2l8.4-.8V24h8.7v7.5h-8.7v20c0 3.5.1 5.9.3 7 .2 1.1.7 2.1 1.6 2.8.9.7 2.4 1.1 4.5 1.1 1.1 0 2.4-.1 3.8-.3v7.5c-2.5.5-4.8.8-7 .8-3.5 0-6.2-.7-8-2-1.9-1.4-3-3.2-3.5-5.5s-.8-5.9-.8-10.7V31.6h-5.9V24h6.1l.5-11.8zM271.5 24h9.4l7.9 31.1 8.1-31.1h8.4l-14.7 48.2c-1.1 3.5-2.1 6.1-3 7.8s-2.2 3-3.8 4.1c-1.6 1-3.8 1.5-6.4 1.5-1.6 0-3.2-.2-4.8-.6v-7.4c1.2.2 2.3.3 3.3.3 2.4 0 4.1-.6 5.2-1.8 1-1.2 2.1-3.9 3.3-8.2L271.5 24zM7.6 79.3v31.2"/><path fill="#fff" d="M6.1 79.3h3.1v31.2H6.1z"/><g fill="#fff"><path d="M21.1 79.3v18.9"/><path d="M19.5 79.3h3.1v18.9h-3.1z"/></g><path fill="#fff" d="M34.5 79.3v31.2"/><path fill="#fff" d="M33 79.3h3.1v31.2H33z"/><g fill="#fff"><path d="M48 79.3v18.9"/><path d="M46.4 79.3h3.1v18.9h-3.1z"/></g><path fill="#fff" d="M61.4 79.3v31.2"/><path fill="#fff" d="M59.9 79.3H63v31.2h-3.1z"/><g fill="#fff"><path d="M74.8 79.3v18.9"/><path d="M73.3 79.3h3.1v18.9h-3.1z"/></g><path fill="#fff" d="M88.3 79.3v31.2"/><path fill="#fff" d="M86.7 79.3h3.1v31.2h-3.1z"/><g fill="#fff"><path d="M101.7 79.3v18.9"/><path d="M100.2 79.3h3.1v18.9h-3.1z"/></g><path fill="#fff" d="M115.2 79.3v31.2"/><path fill="#fff" d="M113.6 79.3h3.1v31.2h-3.1z"/><g fill="#fff"><path d="M128.6 79.3v18.9"/><path d="M127.1 79.3h3.1v18.9h-3.1z"/></g><path fill="#fff" d="M142 79.3v31.2"/><path fill="#fff" d="M140.5 79.3h3.1v31.2h-3.1zM169.4 79.3v31.2"/><path fill="#fff" d="M167.9 79.3h3.1v31.2h-3.1z"/><g fill="#fff"><path d="M155.5 79.3v18.9"/><path d="M153.9 79.3h3.1v18.9h-3.1z"/></g><g fill="#fff"><path d="M76.1 58.9c-2.4 0-3.8-.5-4.2-1.6-.4-1.1-.6-2.4-.6-4.1V33.7h4.5V23.2h-4.5V6.7H56.4v16.5h-6.1v10.5h6.1V58.9c0 4.1 1.1 7.1 3.4 8.9 2.2 1.8 5.3 2.7 9.2 2.7.7 0 1.5 0 2.3 0 .8 0 1.6-.1 2.4-.1 1-.1 2.1-.3 3.1-.4s1.9-.4 2.7-.6V58.5c-.5.1-1 .2-1.6.3-.6.1-1.2.1-1.8.1zM79.4 23.2h.1v10.5h-.1z"/></g><circle cx="40" cy="12" r="6.8" fill="#fff"/></svg>